# xmcd CD database file
#
# Track frame offsets:
#	150
#	18988
#	39110
#
# Disc length: 777 seconds
#
# Revision: 4
# Processed by: cddbd v1.4PL0 Copyright (c) Steve Scherf et al.
# Submitted via: CDex 1.40Beta8
#
DISCID=14030703
DTITLE=LIV - Without You
DYEAR=1900
DGENRE=
TTITLE0=Without You
TTITLE1=air
TTITLE2=Without You (English Version)
EXTD=
EXTT0=
EXTT1=
EXTT2=
PLAYORDER=
